<svg xmlns="http://www.w3.org/2000/svg" viewBox="0 0 200 160">
  <!-- 背景 -->
  <rect width="200" height="160" fill="#f7f7f7" opacity="0"/>
  
  <!-- 工場の基本的な建物 -->
  <rect x="20" y="70" width="160" height="70" fill="#546E7A"/>
  
  <!-- 煙突1 -->
  <rect x="40" y="30" width="15" height="40" fill="#455A64"/>
  <rect x="37" y="25" width="21" height="8" fill="#37474F"/>
  
  <!-- 煙突2 -->
  <rect x="70" y="40" width="15" height="30" fill="#455A64"/>
  <rect x="67" y="35" width="21" height="8" fill="#37474F"/>
  
  <!-- 屋根（三角形） -->
  <polygon points="20,70 80,40 140,70" fill="#607D8B"/>
  
  <!-- ドア -->
  <rect x="50" y="100" width="25" height="40" fill="#37474F"/>
  
  <!-- 窓1 -->
  <rect x="100" y="85" width="20" height="15" fill="#90A4AE"/>
  <line x1="100" y1="92.5" x2="120" y2="92.5" stroke="#CFD8DC" stroke-width="2"/>
  <line x1="110" y1="85" x2="110" y2="100" stroke="#CFD8DC" stroke-width="2"/>
  
  <!-- 窓2 -->
  <rect x="130" y="85" width="20" height="15" fill="#90A4AE"/>
  <line x1="130" y1="92.5" x2="150" y2="92.5" stroke="#CFD8DC" stroke-width="2"/>
  <line x1="140" y1="85" x2="140" y2="100" stroke="#CFD8DC" stroke-width="2"/>
  
  <!-- 地面 -->
  <rect x="10" y="140" width="180" height="5" fill="#5D4037"/>
</svg>
